<?xml version="1.0" encoding="utf-8"?>
<!-- Generator: Adobe Illustrator 23.0.2, SVG Export Plug-In . SVG Version: 6.00 Build 0)  -->
<svg version="1.1" id="Layer_1" xmlns="http://www.w3.org/2000/svg" xmlns:xlink="http://www.w3.org/1999/xlink" x="0px" y="0px"
	 viewBox="0 0 283.1 41" style="enable-background:new 0 0 283.1 41;" xml:space="preserve">
<style type="text/css">
	.st0{clip-path:url(#SVGID_2_);}
	.st1{clip-path:url(#SVGID_2_);fill:#F16522;}
	.st2{clip-path:url(#SVGID_2_);fill:#FFFFFF;}
</style>
<g>
	<defs>
		<rect id="SVGID_1_" x="1.2" y="1.1" width="279.4" height="38.7"/>
	</defs>
	<clipPath id="SVGID_2_">
		<use xlink:href="#SVGID_1_"  style="overflow:visible;"/>
	</clipPath>
	<path class="st0" d="M225.6,23.1c0,0.1-0.6,2.1-2.1,4.3c-1.2,1.8-2.5,3.6-4.6,3.7c-2,0-2.6-1.2-4.9-1.2c-2.3,0-3,1.2-4.9,1.2
		c-2,0.1-3.5-2-4.7-3.8c-2.6-3.7-4.5-10.5-1.9-15.1c1.3-2.3,3.7-3.7,6.2-3.8c1.9,0,3.8,1.3,4.9,1.3c1.2,0,3.4-1.6,5.7-1.4
		c1,0,3.7,0.4,5.5,3c-0.1,0.1-3.3,1.9-3.2,5.7C221.6,21.6,225.6,23.1,225.6,23.1 M217.8,5.9c1-1.3,1.8-3,1.6-4.8
		c-1.5,0.1-3.3,1-4.4,2.3c-1,1.1-1.8,2.9-1.6,4.6C215.1,8.2,216.8,7.2,217.8,5.9"/>
	<path class="st0" d="M238.1,10.8c0-0.5-0.2-0.9-0.5-1.2c-0.3-0.3-0.8-0.4-1.4-0.4c-0.4,0-0.7,0-0.9,0.1v3.2c0.2,0,0.5,0.1,0.8,0.1
		c0.6,0,1.1-0.2,1.5-0.5C237.9,11.8,238.1,11.3,238.1,10.8 M239.5,10.7c0,0.8-0.2,1.5-0.7,1.9c-0.6,0.6-1.5,1-2.7,1
		c-0.3,0-0.6,0-0.8,0V17H234V8.3c0.5-0.1,1.3-0.2,2.1-0.2c1.1,0,1.9,0.2,2.5,0.7C239.2,9.3,239.5,9.9,239.5,10.7 M243.7,11.9
		c-0.1,0-0.2,0-0.4,0c-0.5,0-0.9,0.2-1.2,0.6c-0.2,0.3-0.4,0.7-0.4,1.2V17h-1.4v-4.3c0-0.7,0-1.4,0-2h1.2l0,1.2h0.1
		c0.1-0.4,0.4-0.7,0.7-1c0.3-0.2,0.7-0.3,1-0.3c0.1,0,0.2,0,0.3,0V11.9z M245.7,13.1c0-0.4,0.2-0.8,0.4-1.1c0.3-0.4,0.7-0.6,1.1-0.6
		c0.5,0,0.9,0.2,1.1,0.6c0.2,0.3,0.3,0.7,0.3,1.1H245.7z M249.4,11.5c-0.5-0.7-1.2-1-2.1-1c-0.9,0-1.7,0.3-2.2,1
		c-0.5,0.6-0.8,1.4-0.8,2.4c0,1,0.3,1.7,0.8,2.3c0.6,0.6,1.3,0.9,2.3,0.9c0.8,0,1.5-0.1,2.1-0.4l-0.2-1c-0.5,0.2-1.1,0.3-1.7,0.3
		c-0.6,0-1-0.1-1.4-0.4c-0.4-0.3-0.6-0.8-0.6-1.4h4.2c0-0.2,0.1-0.4,0.1-0.6C250,12.7,249.8,12,249.4,11.5 M259.9,17h-1.4v-3.5
		c0-1.2-0.4-1.8-1.1-1.8c-0.3,0-0.6,0.1-0.8,0.4c-0.2,0.3-0.3,0.6-0.3,1V17h-1.4v-3.7c0-0.5-0.1-0.8-0.3-1.1
		c-0.2-0.3-0.5-0.4-0.9-0.4c-0.4,0-0.7,0.1-0.9,0.5c-0.2,0.3-0.4,0.7-0.4,1.1V17H251v-4.5c0-0.6,0-1.2,0-1.8h1.2l0.1,0.9h0
		c0.4-0.7,1.1-1.1,1.9-1.1c0.9,0,1.4,0.4,1.7,1.2h0c0.2-0.3,0.4-0.6,0.8-0.8c0.4-0.2,0.7-0.4,1.1-0.4c0.6,0,1,0.2,1.4,0.6
		c0.4,0.5,0.7,1.2,0.7,2.1V17z M263,17h-1.4v-6.3h1.4V17z M263.2,8.7c0,0.3-0.1,0.4-0.2,0.6c-0.2,0.2-0.4,0.3-0.6,0.3
		c-0.2,0-0.4-0.1-0.6-0.3c-0.2-0.2-0.2-0.4-0.2-0.6c0-0.2,0.1-0.4,0.2-0.6c0.2-0.1,0.4-0.2,0.6-0.2c0.2,0,0.4,0.1,0.6,0.2
		C263.1,8.3,263.2,8.5,263.2,8.7 M270.1,17h-1.3l-0.1-1h0c-0.5,0.7-1.1,1.1-2,1.1c-0.6,0-1.2-0.2-1.5-0.6c-0.4-0.5-0.7-1.2-0.7-2.2
		v-3.7h1.5v3.5c0,1.2,0.4,1.8,1.3,1.8c0.6,0,1.1-0.3,1.3-0.9c0.1-0.2,0.1-0.3,0.1-0.5v-3.9h1.4v4.5C270.1,15.7,270.1,16.3,270.1,17
		 M280.5,17h-1.4v-3.5c0-1.2-0.4-1.8-1.2-1.8c-0.4,0-0.7,0.1-0.9,0.4c-0.2,0.3-0.4,0.6-0.4,1V17h-1.4v-3.7c0-0.5-0.1-0.8-0.3-1.1
		c-0.2-0.3-0.5-0.4-0.9-0.4c-0.4,0-0.7,0.1-0.9,0.5c-0.2,0.3-0.3,0.7-0.3,1.1V17h-1.3v-4.5c0-0.6,0-1.2,0-1.8h1.2l0.1,0.9h0
		c0.3-0.7,1-1.1,1.8-1.1c0.9,0,1.5,0.4,1.8,1.2h0c0.2-0.3,0.5-0.6,0.7-0.8c0.4-0.2,0.8-0.4,1.3-0.4c0.6,0,1,0.2,1.4,0.6
		c0.4,0.5,0.7,1.2,0.7,2.1V17z"/>
	<path class="st0" d="M238.2,24.7c0-1-0.6-1.5-1.8-1.5c-0.4,0-0.8,0-1,0.1v3h1c0.6,0,1-0.2,1.3-0.4
		C238.1,25.5,238.2,25.1,238.2,24.7 M240,31h-1.5c-0.1-0.3-0.3-1-0.6-2.1c-0.1-0.6-0.3-1-0.6-1.2c-0.2-0.3-0.6-0.4-1.1-0.4h-0.9V31
		H234v-8.7c0.6-0.1,1.4-0.2,2.3-0.2c1.2,0,2.1,0.2,2.6,0.7c0.5,0.4,0.8,1,0.8,1.7c0,0.5-0.2,1-0.5,1.4c-0.3,0.4-0.7,0.6-1.1,0.8v0
		c0.6,0.2,1,0.8,1.3,1.7c0.2,0.7,0.3,1.2,0.4,1.5C239.8,30.5,239.9,30.8,240,31 M244.7,27.1c0-0.4-0.1-0.8-0.3-1.1
		c-0.2-0.4-0.6-0.6-1.1-0.6c-0.4,0-0.8,0.2-1.1,0.6c-0.2,0.3-0.4,0.7-0.4,1.1H244.7z M246.1,27.5c0,0.2,0,0.5-0.1,0.6h-4.2
		c0,0.6,0.2,1.1,0.6,1.4c0.4,0.3,0.8,0.4,1.4,0.4c0.6,0,1.2-0.1,1.7-0.3l0.2,1c-0.6,0.3-1.3,0.4-2.1,0.4c-1,0-1.7-0.3-2.3-0.9
		c-0.6-0.6-0.8-1.4-0.8-2.3c0-1,0.3-1.8,0.8-2.4c0.5-0.7,1.3-1,2.2-1c0.9,0,1.6,0.3,2.1,1C245.9,26,246.1,26.7,246.1,27.5
		 M251.2,29.2c0,0.6-0.2,1-0.6,1.4c-0.4,0.4-1,0.5-1.8,0.5c-0.7,0-1.3-0.1-1.8-0.4l0.3-1c0.5,0.3,1,0.4,1.6,0.4
		c0.7,0,1.1-0.3,1.1-0.8c0-0.2-0.1-0.4-0.2-0.6c-0.2-0.1-0.4-0.3-0.8-0.4c-1.1-0.4-1.7-1-1.7-1.8c0-0.5,0.2-1,0.6-1.4
		c0.4-0.3,1-0.5,1.7-0.5c0.6,0,1.2,0.1,1.6,0.4l-0.3,1c-0.4-0.2-0.8-0.3-1.3-0.3c-0.3,0-0.5,0.1-0.7,0.2c-0.2,0.1-0.2,0.3-0.2,0.5
		s0.1,0.4,0.3,0.5c0.1,0.1,0.4,0.3,0.9,0.4C250.6,27.6,251.2,28.3,251.2,29.2 M256.3,27.1c0-0.4-0.1-0.8-0.3-1.1
		c-0.3-0.4-0.6-0.6-1.1-0.6c-0.4,0-0.7,0.2-1,0.6c-0.2,0.3-0.4,0.7-0.4,1.1H256.3z M257.6,27.5c0,0.2,0,0.5,0,0.6h-4.1
		c0,0.6,0.2,1.1,0.6,1.4c0.3,0.3,0.7,0.4,1.2,0.4c0.6,0,1.2-0.1,1.7-0.3l0.2,1c-0.6,0.3-1.3,0.4-2.1,0.4c-0.9,0-1.6-0.3-2.1-0.9
		c-0.6-0.6-0.8-1.4-0.8-2.3c0-1,0.3-1.8,0.8-2.4c0.6-0.7,1.3-1,2.1-1c0.9,0,1.6,0.3,2.1,1C257.4,26,257.6,26.7,257.6,27.5 M260.3,31
		h-1.4v-9.2h1.4V31z M263.3,31h-1.5v-9.2h1.5V31z M269,27.1c0-0.4-0.1-0.8-0.3-1.1c-0.2-0.4-0.6-0.6-1.1-0.6c-0.5,0-0.8,0.2-1.1,0.6
		c-0.2,0.3-0.4,0.7-0.4,1.1H269z M270.2,27.5c0,0.2,0,0.5,0,0.6H266c0,0.6,0.2,1.1,0.6,1.4c0.3,0.3,0.8,0.4,1.4,0.4
		c0.6,0,1.2-0.1,1.7-0.3l0.2,1c-0.5,0.3-1.2,0.4-2.1,0.4c-1,0-1.8-0.3-2.3-0.9c-0.6-0.6-0.8-1.4-0.8-2.3c0-1,0.3-1.8,0.8-2.4
		c0.5-0.7,1.3-1,2.2-1c0.9,0,1.6,0.3,2.1,1C270,26,270.2,26.7,270.2,27.5 M274.9,25.9c-0.1,0-0.3,0-0.4,0c-0.5,0-0.9,0.2-1.1,0.6
		c-0.2,0.3-0.4,0.7-0.4,1.2V31h-1.4v-4.4c0-0.7,0-1.4,0-2h1.2l0.1,1.2h0c0.1-0.4,0.4-0.7,0.7-1c0.3-0.2,0.7-0.3,1-0.3
		c0.2,0,0.3,0,0.4,0V25.9z"/>
	<rect x="1.6" y="4.6" class="st1" width="32.5" height="29.9"/>
	<path class="st2" d="M1.2,35h33.3V4.2H1.2V35z M34.1,34.5H1.6V4.6h32.5V34.5z"/>
	<path class="st2" d="M27.9,15.3c0,0,0.3-4.8-5.1-4.8c-5.8,0-14.4,6-14.8,13.4c-0.1,2,1.2,2.1,1.2,2.1s-0.5,1.3-0.5,2.6
		c0,1.6,0.2,2.2,0.2,2.2s0.9-3.7,1.5-4.8c1.2-2.4,3.5-5.2,7.1-7.3c1.1-0.6,4.2-2,5-1c1.2,1.5-3,4.1-4.4,5.1c-2.6,2-7.3,2.9-7.3,2.9
		l-0.2,0.3c0,0,3.6-0.2,7.7-2.6c2.4-1.4,8.1-4.9,6.4-7.8c-1.1-1.9-5.6-0.3-8.5,1.6C11.8,20.2,9.4,25,9.4,25S9,21,15.5,15.9
		c1.7-1.3,5.7-3.1,7.8-3.1C26.9,12.8,27.9,15.3,27.9,15.3"/>
	<path class="st0" d="M50.9,12.8h2.3v20.3c-3.2,0-5.7-0.8-7.8-2.3c-2-1.6-3.4-3.4-4.3-5.5c-0.9-2.1-1.3-3.9-1.3-5.5
		c0-1.8,0.3-3.6,1-5.3c0.7-1.7,1.6-3.1,2.8-4.4c1.2-1.3,2.6-2.3,4.3-3c1.6-0.7,3.4-1.1,5.3-1.1v2.4c-1.7,0-3.4,0.5-5.1,1.4
		c-1.7,0.9-3.1,2.3-4.2,4c-1.1,1.7-1.6,3.7-1.7,5.9c0,1.2,0.3,2.5,0.8,3.8c0.5,1.3,1.2,2.5,2,3.5c0.9,1.1,1.8,1.9,2.8,2.5
		c1,0.6,2,0.9,3,1c0,0,0.1,0,0.1-0.1V12.8z"/>
	<path class="st0" d="M73,33.1h-2.3v-27H73c2.1,0,3.8,0.4,5.2,1.3c1.4,0.9,2.4,1.9,3.2,3.2c0.7,1.2,1.3,2.4,1.5,3.6
		c0.3,1.1,0.5,2.1,0.5,2.9c0,1.3-0.3,2.7-0.8,4c-0.6,1.4-1.4,2.6-2.4,3.6c-1.1,1-2.3,1.8-3.8,2.2l6.1,6.3h-3.2L74,27.7h-1V33.1z
		 M81.1,17c0-1.1-0.3-2.3-0.9-3.7c-0.6-1.4-1.5-2.6-2.6-3.5c-1.1-1-2.4-1.5-3.8-1.5c-0.2,0-0.5,0-0.9,0.1V25c0.1,0,0.3,0.1,0.4,0.1
		c0.2,0,0.3,0,0.4,0.1c1,0,2.1-0.3,3.2-0.9c1.1-0.6,2.1-1.5,2.9-2.7C80.7,20.3,81.1,18.8,81.1,17"/>
	<path class="st0" d="M96.7,12.8H99v20.3c-3.2,0-5.7-0.8-7.8-2.3c-2-1.6-3.4-3.4-4.3-5.5c-0.9-2.1-1.3-3.9-1.3-5.5
		c0-1.8,0.3-3.6,1-5.3c0.7-1.7,1.6-3.1,2.8-4.4c1.2-1.3,2.6-2.3,4.3-3c1.6-0.7,3.4-1.1,5.3-1.1v2.4c-1.7,0-3.4,0.5-5.1,1.4
		c-1.7,0.9-3.1,2.3-4.2,4c-1.1,1.7-1.6,3.7-1.7,5.9c0,1.2,0.3,2.5,0.8,3.8c0.5,1.3,1.2,2.5,2,3.5c0.9,1.1,1.8,1.9,2.8,2.5
		c1,0.6,2,0.9,3,1c0,0,0.1,0,0.1-0.1V12.8z"/>
	<polygon class="st0" points="105.4,12.6 110,12.6 110.9,15 105.4,15 105.4,30.8 110.1,30.8 110.1,33.1 103.1,33.1 103.1,15 
		101.9,15 101.1,12.6 103.1,12.6 103.1,6.1 110.1,6.1 110.1,8.4 105.4,8.4 	"/>
	<polygon class="st0" points="115.7,33.1 113.4,33.1 113.4,6 120.8,9.9 120.8,6.1 123.1,6.1 123.1,33.1 120.8,33.1 120.8,12.5 
		115.7,9.9 	"/>
	<polygon class="st0" points="144.1,30.8 149.7,30.8 149.7,33.1 141.7,33.1 141.7,6.1 144.1,6.1 	"/>
	<polygon class="st0" points="153.8,12.6 158.5,12.6 159.4,15 153.8,15 153.8,30.8 158.5,30.8 158.5,33.1 151.5,33.1 151.5,15 
		150.3,15 149.5,12.6 151.5,12.6 151.5,6.1 158.5,6.1 158.5,8.4 153.8,8.4 	"/>
	<path class="st0" d="M164.3,33.1H162v-27h2.3c2.1,0,3.8,0.4,5.2,1.3c1.4,0.9,2.4,1.9,3.2,3.2c0.7,1.2,1.3,2.4,1.5,3.6
		c0.3,1.1,0.5,2.1,0.5,2.9c0,1.3-0.3,2.7-0.8,4c-0.6,1.4-1.4,2.6-2.4,3.6c-1.1,1-2.3,1.8-3.8,2.2l6.1,6.3h-3.2l-5.3-5.5h-1V33.1z
		 M172.4,17c0-1.1-0.3-2.3-0.9-3.7c-0.6-1.4-1.5-2.6-2.6-3.5c-1.1-1-2.4-1.5-3.8-1.5c-0.2,0-0.5,0-0.9,0.1V25c0.1,0,0.3,0.1,0.4,0.1
		c0.2,0,0.3,0,0.4,0.1c1,0,2.1-0.3,3.2-0.9c1.1-0.6,2.1-1.5,2.9-2.7C172,20.3,172.4,18.8,172.4,17"/>
	<path class="st0" d="M139.6,5.9v2.4c-2.4,0-4.4,0.5-6.1,1.6c-1.7,1.1-3,2.4-3.9,4.1c-0.9,1.7-1.3,3.6-1.3,5.5c0,2,0.5,3.8,1.3,5.5
		c0.9,1.7,2.2,3.1,3.9,4.1c1.7,1.1,3.8,1.6,6.1,1.6v2.4c-2.2,0-4.2-0.4-5.9-1.1c-1.7-0.7-3.2-1.8-4.3-3.1c-1.2-1.3-2-2.7-2.6-4.4
		c-0.6-1.6-0.9-3.3-0.9-5c0-1.8,0.3-3.4,0.9-5.1c0.6-1.6,1.4-3.1,2.6-4.4c1.1-1.3,2.6-2.3,4.3-3.1C135.4,6.3,137.4,5.9,139.6,5.9"/>
	<path class="st0" d="M134.6,33.4v1.4c0,0,1.9,0,2,1.7c0.1,1.4-2,1.8-2,1.8v1.6c0,0,3.7,0,3.7-3.3C138.4,33,134.6,33.4,134.6,33.4"
		/>
	<path class="st0" d="M59.1,29.6c0,0.5,0.3,0.9,0.8,1.2c0.5,0.3,1.1,0.4,1.8,0.5c0.7,0,1.3-0.2,1.8-0.5c0.5-0.3,0.8-0.7,0.8-1.2V6.1
		h2.4v23.5c0,0.8-0.2,1.5-0.7,2.1c-0.5,0.6-1.1,1.1-1.8,1.4c-0.8,0.3-1.5,0.5-2.4,0.5c-0.8,0-1.6-0.2-2.4-0.5s-1.4-0.8-1.8-1.4
		c-0.5-0.6-0.7-1.3-0.7-2.1V6.1h2.3V29.6z"/>
	<path class="st0" d="M60.6,2.4c0,0.7-0.6,1.3-1.3,1.3c-0.7,0-1.3-0.6-1.3-1.3c0-0.7,0.6-1.3,1.3-1.3C60,1.1,60.6,1.7,60.6,2.4"/>
	<path class="st0" d="M65.3,2.4c0,0.7-0.6,1.3-1.3,1.3c-0.7,0-1.3-0.6-1.3-1.3c0-0.7,0.6-1.3,1.3-1.3C64.8,1.1,65.3,1.7,65.3,2.4"/>
	<rect x="187.8" y="6.1" class="st0" width="0.3" height="27"/>
</g>
</svg>
